<?xml version="1.0" encoding="UTF-8"?>
<svg id="Layer_2" data-name="Layer 2" xmlns="http://www.w3.org/2000/svg" viewBox="0 0 527.46 250.01">
  <defs>
    <style>
      .cls-1 {
        fill: #fff;
        stroke-width: 0px;
      }
    </style>
  </defs>
  <g id="Layer_1-2" data-name="Layer 1">
    <g>
      <polygon class="cls-1" points="76.21 68.76 76.21 181.26 132.46 125.01 76.21 68.76"/>
      <polygon class="cls-1" points="56.25 181.26 56.25 68.76 0 125.01 56.25 181.26"/>
      <path class="cls-1" d="m329.96,20h-62.5v210h62.5c34.52,0,62.5-27.98,62.5-62.5h0c0-16.42-6.34-31.35-16.69-42.5,10.35-11.15,16.69-26.08,16.69-42.5h0c0-34.52-27.98-62.5-62.5-62.5Zm0,170h-22.5v-45h22.5c12.43,0,22.5,10.07,22.5,22.5s-10.07,22.5-22.5,22.5Zm0-85h-22.5v-45h22.5c12.43,0,22.5,10.07,22.5,22.5s-10.07,22.5-22.5,22.5Z"/>
      <path class="cls-1" d="m522.79,58.76c-.92-2.22-11.66-27.2-38.89-35.84-5.97-1.9-12.34-2.92-18.94-2.92-34.51,0-62.5,27.98-62.5,62.5v85c0,34.52,27.99,62.5,62.5,62.5,17.26,0,32.88-7,44.2-18.3,5.77-5.78,10.41-12.67,13.58-20.33,1.43-3.46,2.27-6.43,2.6-7.68,1.74-6.52,2.12-12.18,2.12-16.19v-85c-.04-10.86-2.71-19.01-4.67-23.74Zm-35.52,108.84c0,12.37-10.03,22.4-22.4,22.4s-22.41-10.03-22.41-22.4v-85.2c0-12.37,10.03-22.4,22.41-22.4,6.19,0,11.79,2.51,15.84,6.56,4.05,4.06,6.56,9.66,6.56,15.84v85.2Z"/>
      <path class="cls-1" d="m237.46,190h-65v-34.82l30.09-30.09-30.09-30.09v-55c0-11.05-8.95-20-20-20h0c-11.05,0-20,8.95-20,20v15L77.46,0l-21.21,21.21,103.88,103.88-103.71,103.7,21.21,21.22,54.83-54.83v34.82h105c11.05,0,20-8.95,20-20h0c0-11.05-8.95-20-20-20Z"/>
    </g>
  </g>
</svg>